<mxfile host="app.diagrams.net" agent="Mozilla/5.0 (Windows NT 10.0; Win64; x64) AppleWebKit/537.36 (KHTML, like Gecko) Chrome/136.0.0.0 Safari/537.36 Edg/136.0.0.0" version="27.0.8">
  <diagram name="Page-1" id="RMWWDzC80FKMsA-51YJ7">
    <mxGraphModel grid="0" page="0" gridSize="10" guides="1" tooltips="1" connect="1" arrows="1" fold="1" pageScale="1" pageWidth="827" pageHeight="1169" math="0" shadow="0">
      <root>
        <mxCell id="0" />
        <mxCell id="1" parent="0" />
        <mxCell id="OmHejzrjm06ipVWm45O4-8" value="" style="swimlane;startSize=0;" vertex="1" parent="1">
          <mxGeometry x="480" y="60" width="671" height="1298" as="geometry" />
        </mxCell>
        <mxCell id="OmHejzrjm06ipVWm45O4-10" value="Créer un travail de sauvegarde" style="ellipse;whiteSpace=wrap;html=1;" vertex="1" parent="OmHejzrjm06ipVWm45O4-8">
          <mxGeometry x="30" y="20" width="120" height="80" as="geometry" />
        </mxCell>
        <mxCell id="OmHejzrjm06ipVWm45O4-11" value="Modifier un travail de sauvegarde" style="ellipse;whiteSpace=wrap;html=1;" vertex="1" parent="OmHejzrjm06ipVWm45O4-8">
          <mxGeometry x="30" y="110" width="120" height="80" as="geometry" />
        </mxCell>
        <mxCell id="OmHejzrjm06ipVWm45O4-12" value="Supprimer un travail de sauvegarde" style="ellipse;whiteSpace=wrap;html=1;" vertex="1" parent="OmHejzrjm06ipVWm45O4-8">
          <mxGeometry x="30" y="200" width="120" height="80" as="geometry" />
        </mxCell>
        <mxCell id="AZHlG1yJf0mSkADylVUj-2" style="edgeStyle=orthogonalEdgeStyle;rounded=0;orthogonalLoop=1;jettySize=auto;html=1;exitX=1;exitY=0.5;exitDx=0;exitDy=0;entryX=0;entryY=0.5;entryDx=0;entryDy=0;dashed=1;" edge="1" parent="OmHejzrjm06ipVWm45O4-8" source="OmHejzrjm06ipVWm45O4-13" target="AZHlG1yJf0mSkADylVUj-1">
          <mxGeometry relative="1" as="geometry" />
        </mxCell>
        <mxCell id="AZHlG1yJf0mSkADylVUj-3" value="Include" style="edgeLabel;html=1;align=center;verticalAlign=middle;resizable=0;points=[];" vertex="1" connectable="0" parent="AZHlG1yJf0mSkADylVUj-2">
          <mxGeometry x="-0.0096" y="1" relative="1" as="geometry">
            <mxPoint x="-2" y="21" as="offset" />
          </mxGeometry>
        </mxCell>
        <mxCell id="I3RhKMvZ1KnWXKT1SfvR-9" style="edgeStyle=orthogonalEdgeStyle;rounded=0;orthogonalLoop=1;jettySize=auto;html=1;exitX=1;exitY=0.5;exitDx=0;exitDy=0;entryX=0;entryY=0.5;entryDx=0;entryDy=0;dashed=1;" edge="1" parent="OmHejzrjm06ipVWm45O4-8" source="OmHejzrjm06ipVWm45O4-13" target="I3RhKMvZ1KnWXKT1SfvR-1">
          <mxGeometry relative="1" as="geometry">
            <mxPoint x="114.83640687118887" y="479.0042712474593" as="sourcePoint" />
            <mxPoint x="176.98359312880703" y="539.4357287525381" as="targetPoint" />
            <Array as="points">
              <mxPoint x="159" y="437" />
              <mxPoint x="159" y="601" />
              <mxPoint x="179" y="601" />
            </Array>
          </mxGeometry>
        </mxCell>
        <mxCell id="I3RhKMvZ1KnWXKT1SfvR-10" value="Extend" style="edgeLabel;html=1;align=center;verticalAlign=middle;resizable=0;points=[];" connectable="0" vertex="1" parent="I3RhKMvZ1KnWXKT1SfvR-9">
          <mxGeometry x="-0.1919" y="-2" relative="1" as="geometry">
            <mxPoint as="offset" />
          </mxGeometry>
        </mxCell>
        <mxCell id="OmHejzrjm06ipVWm45O4-13" value="Lancer un travail de sauvegarde" style="ellipse;whiteSpace=wrap;html=1;" vertex="1" parent="OmHejzrjm06ipVWm45O4-8">
          <mxGeometry x="30" y="397" width="120" height="80" as="geometry" />
        </mxCell>
        <mxCell id="OmHejzrjm06ipVWm45O4-14" value="Lister/Afficher les travaux de sauvegarde" style="ellipse;whiteSpace=wrap;html=1;" vertex="1" parent="OmHejzrjm06ipVWm45O4-8">
          <mxGeometry x="30" y="607" width="120" height="80" as="geometry" />
        </mxCell>
        <mxCell id="OmHejzrjm06ipVWm45O4-15" value="Lancer plusieurs travaux en parallèles" style="ellipse;whiteSpace=wrap;html=1;" vertex="1" parent="OmHejzrjm06ipVWm45O4-8">
          <mxGeometry x="30" y="512" width="120" height="80" as="geometry" />
        </mxCell>
        <mxCell id="OmHejzrjm06ipVWm45O4-19" value="Mettre à jour l&#39;état en temps réel" style="ellipse;whiteSpace=wrap;html=1;" vertex="1" parent="OmHejzrjm06ipVWm45O4-8">
          <mxGeometry x="521" y="314" width="120" height="80" as="geometry" />
        </mxCell>
        <mxCell id="OmHejzrjm06ipVWm45O4-20" value="Ecrire dans le fichier de log" style="ellipse;whiteSpace=wrap;html=1;" vertex="1" parent="OmHejzrjm06ipVWm45O4-8">
          <mxGeometry x="521" y="482" width="120" height="80" as="geometry" />
        </mxCell>
        <mxCell id="OmHejzrjm06ipVWm45O4-22" value="" style="endArrow=classic;html=1;rounded=0;dashed=1;entryX=0;entryY=0.5;entryDx=0;entryDy=0;" edge="1" parent="OmHejzrjm06ipVWm45O4-8" source="AZHlG1yJf0mSkADylVUj-1" target="OmHejzrjm06ipVWm45O4-20">
          <mxGeometry width="50" height="50" relative="1" as="geometry">
            <mxPoint x="244" y="547" as="sourcePoint" />
            <mxPoint x="294" y="497" as="targetPoint" />
          </mxGeometry>
        </mxCell>
        <mxCell id="OmHejzrjm06ipVWm45O4-24" value="Include" style="edgeLabel;html=1;align=center;verticalAlign=middle;resizable=0;points=[];" connectable="0" vertex="1" parent="OmHejzrjm06ipVWm45O4-22">
          <mxGeometry x="-0.1965" y="-1" relative="1" as="geometry">
            <mxPoint as="offset" />
          </mxGeometry>
        </mxCell>
        <mxCell id="OmHejzrjm06ipVWm45O4-23" value="" style="endArrow=classic;html=1;rounded=0;dashed=1;entryX=0;entryY=0.5;entryDx=0;entryDy=0;" edge="1" parent="OmHejzrjm06ipVWm45O4-8" source="AZHlG1yJf0mSkADylVUj-1" target="OmHejzrjm06ipVWm45O4-19">
          <mxGeometry width="50" height="50" relative="1" as="geometry">
            <mxPoint x="316" y="475" as="sourcePoint" />
            <mxPoint x="394" y="397" as="targetPoint" />
          </mxGeometry>
        </mxCell>
        <mxCell id="OmHejzrjm06ipVWm45O4-25" value="Include" style="edgeLabel;html=1;align=center;verticalAlign=middle;resizable=0;points=[];" connectable="0" vertex="1" parent="OmHejzrjm06ipVWm45O4-23">
          <mxGeometry x="-0.0364" y="2" relative="1" as="geometry">
            <mxPoint as="offset" />
          </mxGeometry>
        </mxCell>
        <mxCell id="OmHejzrjm06ipVWm45O4-26" value="" style="endArrow=classic;html=1;rounded=0;dashed=1;entryX=0.5;entryY=1;entryDx=0;entryDy=0;exitX=0.5;exitY=0;exitDx=0;exitDy=0;" edge="1" parent="OmHejzrjm06ipVWm45O4-8" source="OmHejzrjm06ipVWm45O4-15" target="OmHejzrjm06ipVWm45O4-13">
          <mxGeometry width="50" height="50" relative="1" as="geometry">
            <mxPoint x="160" y="447" as="sourcePoint" />
            <mxPoint x="230" y="407" as="targetPoint" />
          </mxGeometry>
        </mxCell>
        <mxCell id="OmHejzrjm06ipVWm45O4-27" value="Inclut" style="edgeLabel;html=1;align=center;verticalAlign=middle;resizable=0;points=[];" connectable="0" vertex="1" parent="OmHejzrjm06ipVWm45O4-26">
          <mxGeometry x="-0.0364" y="2" relative="1" as="geometry">
            <mxPoint as="offset" />
          </mxGeometry>
        </mxCell>
        <mxCell id="OmHejzrjm06ipVWm45O4-30" value="Sauvegarder/Mettre à jour le fichier configuration" style="ellipse;whiteSpace=wrap;html=1;" vertex="1" parent="OmHejzrjm06ipVWm45O4-8">
          <mxGeometry x="220" y="110" width="120" height="80" as="geometry" />
        </mxCell>
        <mxCell id="OmHejzrjm06ipVWm45O4-31" value="" style="endArrow=classic;html=1;rounded=0;dashed=1;entryX=0;entryY=0.5;entryDx=0;entryDy=0;exitX=1;exitY=0.5;exitDx=0;exitDy=0;" edge="1" parent="OmHejzrjm06ipVWm45O4-8" source="OmHejzrjm06ipVWm45O4-11" target="OmHejzrjm06ipVWm45O4-30">
          <mxGeometry width="50" height="50" relative="1" as="geometry">
            <mxPoint x="160" y="340" as="sourcePoint" />
            <mxPoint x="230" y="300" as="targetPoint" />
          </mxGeometry>
        </mxCell>
        <mxCell id="OmHejzrjm06ipVWm45O4-32" value="Inclut" style="edgeLabel;html=1;align=center;verticalAlign=middle;resizable=0;points=[];" connectable="0" vertex="1" parent="OmHejzrjm06ipVWm45O4-31">
          <mxGeometry x="-0.0364" y="2" relative="1" as="geometry">
            <mxPoint as="offset" />
          </mxGeometry>
        </mxCell>
        <mxCell id="OmHejzrjm06ipVWm45O4-33" value="" style="endArrow=classic;html=1;rounded=0;dashed=1;entryX=0;entryY=0.5;entryDx=0;entryDy=0;exitX=1;exitY=0.5;exitDx=0;exitDy=0;" edge="1" parent="OmHejzrjm06ipVWm45O4-8" source="OmHejzrjm06ipVWm45O4-10" target="OmHejzrjm06ipVWm45O4-30">
          <mxGeometry width="50" height="50" relative="1" as="geometry">
            <mxPoint x="160" y="160" as="sourcePoint" />
            <mxPoint x="230" y="160" as="targetPoint" />
          </mxGeometry>
        </mxCell>
        <mxCell id="OmHejzrjm06ipVWm45O4-34" value="Inclut" style="edgeLabel;html=1;align=center;verticalAlign=middle;resizable=0;points=[];" connectable="0" vertex="1" parent="OmHejzrjm06ipVWm45O4-33">
          <mxGeometry x="-0.0364" y="2" relative="1" as="geometry">
            <mxPoint as="offset" />
          </mxGeometry>
        </mxCell>
        <mxCell id="OmHejzrjm06ipVWm45O4-35" value="" style="endArrow=classic;html=1;rounded=0;dashed=1;entryX=0;entryY=0.5;entryDx=0;entryDy=0;exitX=1;exitY=0.5;exitDx=0;exitDy=0;" edge="1" parent="OmHejzrjm06ipVWm45O4-8" source="OmHejzrjm06ipVWm45O4-12" target="OmHejzrjm06ipVWm45O4-30">
          <mxGeometry width="50" height="50" relative="1" as="geometry">
            <mxPoint x="160" y="70" as="sourcePoint" />
            <mxPoint x="230" y="160" as="targetPoint" />
          </mxGeometry>
        </mxCell>
        <mxCell id="OmHejzrjm06ipVWm45O4-36" value="Inclut" style="edgeLabel;html=1;align=center;verticalAlign=middle;resizable=0;points=[];" connectable="0" vertex="1" parent="OmHejzrjm06ipVWm45O4-35">
          <mxGeometry x="-0.0364" y="2" relative="1" as="geometry">
            <mxPoint as="offset" />
          </mxGeometry>
        </mxCell>
        <mxCell id="OmHejzrjm06ipVWm45O4-16" value="Configurer la langue" style="ellipse;whiteSpace=wrap;html=1;" vertex="1" parent="OmHejzrjm06ipVWm45O4-8">
          <mxGeometry x="30" y="290" width="120" height="80" as="geometry" />
        </mxCell>
        <mxCell id="OmHejzrjm06ipVWm45O4-37" value="" style="endArrow=classic;html=1;rounded=0;dashed=1;entryX=0;entryY=0.5;entryDx=0;entryDy=0;exitX=1;exitY=0.5;exitDx=0;exitDy=0;" edge="1" parent="OmHejzrjm06ipVWm45O4-8" source="OmHejzrjm06ipVWm45O4-16" target="OmHejzrjm06ipVWm45O4-30">
          <mxGeometry width="50" height="50" relative="1" as="geometry">
            <mxPoint x="160" y="250" as="sourcePoint" />
            <mxPoint x="230" y="160" as="targetPoint" />
          </mxGeometry>
        </mxCell>
        <mxCell id="OmHejzrjm06ipVWm45O4-38" value="Inclut" style="edgeLabel;html=1;align=center;verticalAlign=middle;resizable=0;points=[];" connectable="0" vertex="1" parent="OmHejzrjm06ipVWm45O4-37">
          <mxGeometry x="-0.0364" y="2" relative="1" as="geometry">
            <mxPoint as="offset" />
          </mxGeometry>
        </mxCell>
        <mxCell id="oNWyMIZ50LookFcU-0Hz-1" value="Choisir le format du fichier de log : XML/JSON" style="ellipse;whiteSpace=wrap;html=1;" vertex="1" parent="OmHejzrjm06ipVWm45O4-8">
          <mxGeometry x="30" y="930" width="120" height="80" as="geometry" />
        </mxCell>
        <mxCell id="AZHlG1yJf0mSkADylVUj-6" style="edgeStyle=orthogonalEdgeStyle;rounded=0;orthogonalLoop=1;jettySize=auto;html=1;exitX=1;exitY=0.5;exitDx=0;exitDy=0;dashed=1;" edge="1" parent="OmHejzrjm06ipVWm45O4-8" source="-kPdtqsm7Ypkz9oSodEf-1" target="AZHlG1yJf0mSkADylVUj-4">
          <mxGeometry relative="1" as="geometry" />
        </mxCell>
        <mxCell id="AZHlG1yJf0mSkADylVUj-7" value="Inclut" style="edgeLabel;html=1;align=center;verticalAlign=middle;resizable=0;points=[];" vertex="1" connectable="0" parent="AZHlG1yJf0mSkADylVUj-6">
          <mxGeometry x="0.6069" y="-3" relative="1" as="geometry">
            <mxPoint x="-13" y="10" as="offset" />
          </mxGeometry>
        </mxCell>
        <mxCell id="-kPdtqsm7Ypkz9oSodEf-1" value="Sélectionner un programme" style="ellipse;whiteSpace=wrap;html=1;" vertex="1" parent="OmHejzrjm06ipVWm45O4-8">
          <mxGeometry x="30" y="1017" width="120" height="80" as="geometry" />
        </mxCell>
        <mxCell id="AZHlG1yJf0mSkADylVUj-1" value="Exécution des travaux de sauvegarde" style="ellipse;whiteSpace=wrap;html=1;" vertex="1" parent="OmHejzrjm06ipVWm45O4-8">
          <mxGeometry x="365" y="397" width="120" height="80" as="geometry" />
        </mxCell>
        <mxCell id="AZHlG1yJf0mSkADylVUj-8" style="edgeStyle=orthogonalEdgeStyle;rounded=0;orthogonalLoop=1;jettySize=auto;html=1;exitX=0.5;exitY=0;exitDx=0;exitDy=0;entryX=0.5;entryY=1;entryDx=0;entryDy=0;" edge="1" parent="OmHejzrjm06ipVWm45O4-8" source="AZHlG1yJf0mSkADylVUj-4" target="AZHlG1yJf0mSkADylVUj-5">
          <mxGeometry relative="1" as="geometry" />
        </mxCell>
        <mxCell id="AZHlG1yJf0mSkADylVUj-9" value="Extends" style="edgeLabel;html=1;align=center;verticalAlign=middle;resizable=0;points=[];" vertex="1" connectable="0" parent="AZHlG1yJf0mSkADylVUj-8">
          <mxGeometry x="0.3392" y="1" relative="1" as="geometry">
            <mxPoint x="25" y="10" as="offset" />
          </mxGeometry>
        </mxCell>
        <mxCell id="AZHlG1yJf0mSkADylVUj-4" value="Suivre les processus" style="ellipse;whiteSpace=wrap;html=1;" vertex="1" parent="OmHejzrjm06ipVWm45O4-8">
          <mxGeometry x="191" y="1017" width="120" height="80" as="geometry" />
        </mxCell>
        <mxCell id="AZHlG1yJf0mSkADylVUj-5" value="Arrêter les travaux de sauvegarde&amp;nbsp;" style="ellipse;whiteSpace=wrap;html=1;" vertex="1" parent="OmHejzrjm06ipVWm45O4-8">
          <mxGeometry x="191" y="902" width="120" height="80" as="geometry" />
        </mxCell>
        <mxCell id="-kPdtqsm7Ypkz9oSodEf-2" value="Chiffrer les extensions de fichier à chiffrer&amp;nbsp;" style="ellipse;whiteSpace=wrap;html=1;" vertex="1" parent="OmHejzrjm06ipVWm45O4-8">
          <mxGeometry x="30" y="1109" width="120" height="80" as="geometry" />
        </mxCell>
        <mxCell id="I3RhKMvZ1KnWXKT1SfvR-15" style="edgeStyle=orthogonalEdgeStyle;rounded=0;orthogonalLoop=1;jettySize=auto;html=1;exitX=0.5;exitY=0;exitDx=0;exitDy=0;entryX=0;entryY=0.5;entryDx=0;entryDy=0;dashed=1;" edge="1" parent="OmHejzrjm06ipVWm45O4-8" source="I3RhKMvZ1KnWXKT1SfvR-2" target="AZHlG1yJf0mSkADylVUj-1">
          <mxGeometry relative="1" as="geometry">
            <Array as="points">
              <mxPoint x="351" y="437" />
            </Array>
          </mxGeometry>
        </mxCell>
        <mxCell id="I3RhKMvZ1KnWXKT1SfvR-16" value="Include" style="edgeLabel;html=1;align=center;verticalAlign=middle;resizable=0;points=[];" connectable="0" vertex="1" parent="I3RhKMvZ1KnWXKT1SfvR-15">
          <mxGeometry x="-0.2938" relative="1" as="geometry">
            <mxPoint as="offset" />
          </mxGeometry>
        </mxCell>
        <mxCell id="I3RhKMvZ1KnWXKT1SfvR-2" value="Reprendre un travail de sauvegarde" style="ellipse;whiteSpace=wrap;html=1;" vertex="1" parent="OmHejzrjm06ipVWm45O4-8">
          <mxGeometry x="291" y="482" width="120" height="80" as="geometry" />
        </mxCell>
        <mxCell id="I3RhKMvZ1KnWXKT1SfvR-13" style="edgeStyle=orthogonalEdgeStyle;rounded=0;orthogonalLoop=1;jettySize=auto;html=1;exitX=1;exitY=0.5;exitDx=0;exitDy=0;entryX=0;entryY=1;entryDx=0;entryDy=0;dashed=1;" edge="1" parent="OmHejzrjm06ipVWm45O4-8" source="I3RhKMvZ1KnWXKT1SfvR-1" target="I3RhKMvZ1KnWXKT1SfvR-2">
          <mxGeometry relative="1" as="geometry">
            <Array as="points">
              <mxPoint x="309" y="603" />
              <mxPoint x="309" y="564" />
            </Array>
          </mxGeometry>
        </mxCell>
        <mxCell id="I3RhKMvZ1KnWXKT1SfvR-17" value="Extend" style="edgeLabel;html=1;align=center;verticalAlign=middle;resizable=0;points=[];" connectable="0" vertex="1" parent="I3RhKMvZ1KnWXKT1SfvR-13">
          <mxGeometry x="-0.0364" y="-3" relative="1" as="geometry">
            <mxPoint x="13" y="3" as="offset" />
          </mxGeometry>
        </mxCell>
        <mxCell id="I3RhKMvZ1KnWXKT1SfvR-1" value="Stopper un travail de sauvegarde" style="ellipse;whiteSpace=wrap;html=1;" vertex="1" parent="OmHejzrjm06ipVWm45O4-8">
          <mxGeometry x="182" y="562" width="120" height="80" as="geometry" />
        </mxCell>
        <mxCell id="I3RhKMvZ1KnWXKT1SfvR-3" value="Annuler un travail de sauvegarde" style="ellipse;whiteSpace=wrap;html=1;" vertex="1" parent="OmHejzrjm06ipVWm45O4-8">
          <mxGeometry x="208" y="334" width="120" height="80" as="geometry" />
        </mxCell>
        <mxCell id="I3RhKMvZ1KnWXKT1SfvR-11" style="edgeStyle=orthogonalEdgeStyle;rounded=0;orthogonalLoop=1;jettySize=auto;html=1;exitX=1;exitY=0.5;exitDx=0;exitDy=0;entryX=0;entryY=0.5;entryDx=0;entryDy=0;dashed=1;" edge="1" parent="OmHejzrjm06ipVWm45O4-8" source="OmHejzrjm06ipVWm45O4-13" target="I3RhKMvZ1KnWXKT1SfvR-3">
          <mxGeometry relative="1" as="geometry">
            <mxPoint x="183" y="435" as="sourcePoint" />
            <mxPoint x="398" y="435" as="targetPoint" />
          </mxGeometry>
        </mxCell>
        <mxCell id="I3RhKMvZ1KnWXKT1SfvR-12" value="Extend" style="edgeLabel;html=1;align=center;verticalAlign=middle;resizable=0;points=[];" connectable="0" vertex="1" parent="I3RhKMvZ1KnWXKT1SfvR-11">
          <mxGeometry x="-0.0096" y="1" relative="1" as="geometry">
            <mxPoint x="-2" y="21" as="offset" />
          </mxGeometry>
        </mxCell>
        <mxCell id="I3RhKMvZ1KnWXKT1SfvR-21" value="Suivre en temps réel à distance l&#39;état des travaux&amp;nbsp;" style="ellipse;whiteSpace=wrap;html=1;" vertex="1" parent="OmHejzrjm06ipVWm45O4-8">
          <mxGeometry x="33" y="1201" width="120" height="80" as="geometry" />
        </mxCell>
        <mxCell id="AZHlG1yJf0mSkADylVUj-10" style="edgeStyle=orthogonalEdgeStyle;rounded=0;orthogonalLoop=1;jettySize=auto;html=1;entryX=0;entryY=0.5;entryDx=0;entryDy=0;" edge="1" parent="1" source="OmHejzrjm06ipVWm45O4-9" target="-kPdtqsm7Ypkz9oSodEf-1">
          <mxGeometry relative="1" as="geometry">
            <Array as="points">
              <mxPoint x="489" y="521" />
              <mxPoint x="489" y="1117" />
            </Array>
          </mxGeometry>
        </mxCell>
        <mxCell id="-kPdtqsm7Ypkz9oSodEf-3" style="edgeStyle=orthogonalEdgeStyle;rounded=0;orthogonalLoop=1;jettySize=auto;html=1;entryX=0;entryY=0.5;entryDx=0;entryDy=0;" edge="1" parent="1" target="-kPdtqsm7Ypkz9oSodEf-2">
          <mxGeometry relative="1" as="geometry">
            <mxPoint x="371" y="520" as="sourcePoint" />
            <Array as="points">
              <mxPoint x="370" y="520" />
              <mxPoint x="489" y="520" />
              <mxPoint x="489" y="1209" />
            </Array>
          </mxGeometry>
        </mxCell>
        <mxCell id="OmHejzrjm06ipVWm45O4-9" value="User" style="shape=umlActor;verticalLabelPosition=bottom;verticalAlign=top;html=1;outlineConnect=0;" vertex="1" parent="1">
          <mxGeometry x="340" y="480" width="30" height="70" as="geometry" />
        </mxCell>
        <mxCell id="OmHejzrjm06ipVWm45O4-17" value="Afficher l&#39;état d&#39;un travail de sauvegarde" style="ellipse;whiteSpace=wrap;html=1;" vertex="1" parent="1">
          <mxGeometry x="510" y="760" width="120" height="80" as="geometry" />
        </mxCell>
        <mxCell id="OmHejzrjm06ipVWm45O4-18" value="Afficher le fichier de log des sauvegardes" style="ellipse;whiteSpace=wrap;html=1;" vertex="1" parent="1">
          <mxGeometry x="510" y="860" width="120" height="80" as="geometry" />
        </mxCell>
        <mxCell id="OmHejzrjm06ipVWm45O4-39" value="" style="endArrow=classic;html=1;rounded=0;entryX=0;entryY=0.5;entryDx=0;entryDy=0;" edge="1" parent="1" target="OmHejzrjm06ipVWm45O4-13">
          <mxGeometry width="50" height="50" relative="1" as="geometry">
            <mxPoint x="370" y="520" as="sourcePoint" />
            <mxPoint x="510" y="501.9999999999999" as="targetPoint" />
            <Array as="points">
              <mxPoint x="490" y="520" />
              <mxPoint x="490" y="497" />
            </Array>
          </mxGeometry>
        </mxCell>
        <mxCell id="OmHejzrjm06ipVWm45O4-40" value="" style="endArrow=classic;html=1;rounded=0;entryX=0;entryY=0.5;entryDx=0;entryDy=0;" edge="1" parent="1" target="OmHejzrjm06ipVWm45O4-15">
          <mxGeometry width="50" height="50" relative="1" as="geometry">
            <mxPoint x="370" y="520" as="sourcePoint" />
            <mxPoint x="530" y="550" as="targetPoint" />
            <Array as="points">
              <mxPoint x="490" y="520" />
              <mxPoint x="490" y="612" />
            </Array>
          </mxGeometry>
        </mxCell>
        <mxCell id="OmHejzrjm06ipVWm45O4-41" value="" style="endArrow=classic;html=1;rounded=0;entryX=0;entryY=0.5;entryDx=0;entryDy=0;" edge="1" parent="1" target="OmHejzrjm06ipVWm45O4-14">
          <mxGeometry width="50" height="50" relative="1" as="geometry">
            <mxPoint x="370" y="520" as="sourcePoint" />
            <mxPoint x="530" y="480" as="targetPoint" />
            <Array as="points">
              <mxPoint x="490" y="520" />
              <mxPoint x="490" y="707" />
            </Array>
          </mxGeometry>
        </mxCell>
        <mxCell id="OmHejzrjm06ipVWm45O4-42" value="" style="endArrow=classic;html=1;rounded=0;entryX=0;entryY=0.5;entryDx=0;entryDy=0;" edge="1" parent="1" target="OmHejzrjm06ipVWm45O4-18">
          <mxGeometry width="50" height="50" relative="1" as="geometry">
            <mxPoint x="370" y="520" as="sourcePoint" />
            <mxPoint x="530" y="740" as="targetPoint" />
            <Array as="points">
              <mxPoint x="490" y="520" />
              <mxPoint x="490" y="900" />
            </Array>
          </mxGeometry>
        </mxCell>
        <mxCell id="OmHejzrjm06ipVWm45O4-43" value="" style="endArrow=classic;html=1;rounded=0;entryX=0;entryY=0.5;entryDx=0;entryDy=0;" edge="1" parent="1" target="OmHejzrjm06ipVWm45O4-16">
          <mxGeometry width="50" height="50" relative="1" as="geometry">
            <mxPoint x="370" y="520" as="sourcePoint" />
            <mxPoint x="530" y="400" as="targetPoint" />
            <Array as="points">
              <mxPoint x="490" y="520" />
              <mxPoint x="490" y="390" />
            </Array>
          </mxGeometry>
        </mxCell>
        <mxCell id="OmHejzrjm06ipVWm45O4-44" value="" style="endArrow=classic;html=1;rounded=0;entryX=0;entryY=0.5;entryDx=0;entryDy=0;" edge="1" parent="1" target="OmHejzrjm06ipVWm45O4-12">
          <mxGeometry width="50" height="50" relative="1" as="geometry">
            <mxPoint x="370" y="520" as="sourcePoint" />
            <mxPoint x="530" y="490" as="targetPoint" />
            <Array as="points">
              <mxPoint x="490" y="520" />
              <mxPoint x="490" y="300" />
            </Array>
          </mxGeometry>
        </mxCell>
        <mxCell id="OmHejzrjm06ipVWm45O4-45" value="" style="endArrow=classic;html=1;rounded=0;entryX=0;entryY=0.5;entryDx=0;entryDy=0;" edge="1" parent="1" target="OmHejzrjm06ipVWm45O4-11">
          <mxGeometry width="50" height="50" relative="1" as="geometry">
            <mxPoint x="370" y="520" as="sourcePoint" />
            <mxPoint x="530" y="320" as="targetPoint" />
            <Array as="points">
              <mxPoint x="490" y="520" />
              <mxPoint x="490" y="210" />
            </Array>
          </mxGeometry>
        </mxCell>
        <mxCell id="OmHejzrjm06ipVWm45O4-46" value="" style="endArrow=classic;html=1;rounded=0;entryX=0;entryY=0.5;entryDx=0;entryDy=0;" edge="1" parent="1" target="OmHejzrjm06ipVWm45O4-10">
          <mxGeometry width="50" height="50" relative="1" as="geometry">
            <mxPoint x="370" y="520" as="sourcePoint" />
            <mxPoint x="530" y="320" as="targetPoint" />
            <Array as="points">
              <mxPoint x="490" y="520" />
              <mxPoint x="490" y="120" />
            </Array>
          </mxGeometry>
        </mxCell>
        <mxCell id="oNWyMIZ50LookFcU-0Hz-2" value="" style="endArrow=classic;html=1;rounded=0;dashed=1;entryX=0.5;entryY=0;entryDx=0;entryDy=0;exitX=0.5;exitY=1;exitDx=0;exitDy=0;" edge="1" parent="1" source="OmHejzrjm06ipVWm45O4-18" target="oNWyMIZ50LookFcU-0Hz-1">
          <mxGeometry width="50" height="50" relative="1" as="geometry">
            <mxPoint x="640" y="507" as="sourcePoint" />
            <mxPoint x="710" y="555" as="targetPoint" />
          </mxGeometry>
        </mxCell>
        <mxCell id="oNWyMIZ50LookFcU-0Hz-3" value="Inclut" style="edgeLabel;html=1;align=center;verticalAlign=middle;resizable=0;points=[];" connectable="0" vertex="1" parent="oNWyMIZ50LookFcU-0Hz-2">
          <mxGeometry x="-0.1965" y="-1" relative="1" as="geometry">
            <mxPoint as="offset" />
          </mxGeometry>
        </mxCell>
        <mxCell id="oNWyMIZ50LookFcU-0Hz-4" value="" style="endArrow=classic;html=1;rounded=0;entryX=0;entryY=0.5;entryDx=0;entryDy=0;" edge="1" parent="1" target="oNWyMIZ50LookFcU-0Hz-1">
          <mxGeometry width="50" height="50" relative="1" as="geometry">
            <mxPoint x="371" y="520" as="sourcePoint" />
            <mxPoint x="520" y="910" as="targetPoint" />
            <Array as="points">
              <mxPoint x="489" y="521" />
              <mxPoint x="490" y="1030" />
            </Array>
          </mxGeometry>
        </mxCell>
        <mxCell id="I3RhKMvZ1KnWXKT1SfvR-18" value="" style="endArrow=classic;html=1;rounded=0;entryX=0;entryY=0.5;entryDx=0;entryDy=0;" edge="1" parent="1" target="I3RhKMvZ1KnWXKT1SfvR-3">
          <mxGeometry width="50" height="50" relative="1" as="geometry">
            <mxPoint x="370" y="520" as="sourcePoint" />
            <mxPoint x="510" y="497" as="targetPoint" />
            <Array as="points">
              <mxPoint x="490" y="520" />
              <mxPoint x="490" y="434" />
            </Array>
          </mxGeometry>
        </mxCell>
        <mxCell id="I3RhKMvZ1KnWXKT1SfvR-19" value="" style="endArrow=classic;html=1;rounded=0;entryX=0;entryY=0.5;entryDx=0;entryDy=0;" edge="1" parent="1" target="I3RhKMvZ1KnWXKT1SfvR-1">
          <mxGeometry width="50" height="50" relative="1" as="geometry">
            <mxPoint x="370" y="522" as="sourcePoint" />
            <mxPoint x="510" y="614" as="targetPoint" />
            <Array as="points">
              <mxPoint x="490" y="522" />
              <mxPoint x="490" y="661" />
            </Array>
          </mxGeometry>
        </mxCell>
        <mxCell id="I3RhKMvZ1KnWXKT1SfvR-20" value="" style="endArrow=classic;html=1;rounded=0;entryX=0.5;entryY=1;entryDx=0;entryDy=0;" edge="1" parent="1" target="I3RhKMvZ1KnWXKT1SfvR-2">
          <mxGeometry width="50" height="50" relative="1" as="geometry">
            <mxPoint x="370" y="521" as="sourcePoint" />
            <mxPoint x="662" y="661" as="targetPoint" />
            <Array as="points">
              <mxPoint x="490" y="521" />
              <mxPoint x="490" y="751" />
              <mxPoint x="831" y="751" />
            </Array>
          </mxGeometry>
        </mxCell>
        <mxCell id="I3RhKMvZ1KnWXKT1SfvR-22" style="edgeStyle=orthogonalEdgeStyle;rounded=0;orthogonalLoop=1;jettySize=auto;html=1;entryX=0;entryY=0.5;entryDx=0;entryDy=0;" edge="1" parent="1" target="I3RhKMvZ1KnWXKT1SfvR-21">
          <mxGeometry relative="1" as="geometry">
            <mxPoint x="371" y="521" as="sourcePoint" />
            <Array as="points">
              <mxPoint x="489" y="521" />
              <mxPoint x="489" y="1301" />
            </Array>
            <mxPoint x="510" y="1210" as="targetPoint" />
          </mxGeometry>
        </mxCell>
        <mxCell id="uDO1o-pGAAylN5IomSWa-1" value="" style="endArrow=classic;html=1;rounded=0;entryX=0;entryY=0.5;entryDx=0;entryDy=0;" edge="1" parent="1" target="OmHejzrjm06ipVWm45O4-17">
          <mxGeometry width="50" height="50" relative="1" as="geometry">
            <mxPoint x="490" y="800" as="sourcePoint" />
            <mxPoint x="534" y="836" as="targetPoint" />
          </mxGeometry>
        </mxCell>
      </root>
    </mxGraphModel>
  </diagram>
</mxfile>
